0
SECTION
2
HEADER
9
$INSUNITS
70
4
9
$ACADVER
1
AC1014
9
$HANDSEED
5
FFFF
0
ENDSEC
0
SECTION
2
TABLES
0
TABLE
2
VPORT
5
8
100
AcDbSymbolTable
0
ENDTAB
0
TABLE
2
LTYPE
5
5
100
AcDbSymbolTable
0
LTYPE
5
14
100
AcDbSymbolTableRecord
100
AcDbLinetypeTableRecord
2
BYBLOCK
70
0
0
LTYPE
5
15
100
AcDbSymbolTableRecord
100
AcDbLinetypeTableRecord
2
BYLAYER
70
0
0
ENDTAB
0
TABLE
2
LAYER
5
2
100
AcDbSymbolTable
70
2
0
LAYER
5
50
100
AcDbSymbolTableRecord
100
AcDbLayerTableRecord
2
0
70
0
6
CONTINUOUS
0
ENDTAB
0
TABLE
2
STYLE
5
3
100
AcDbSymbolTable
70
1
0
STYLE
5
11
100
AcDbSymbolTableRecord
100
AcDbTextStyleTableRecord
2
STANDARD
70
0
0
ENDTAB
0
TABLE
2
VIEW
5
6
100
AcDbSymbolTable
70
0
0
ENDTAB
0
TABLE
2
UCS
5
7
100
AcDbSymbolTable
70
0
0
ENDTAB
0
TABLE
2
APPID
5
9
100
AcDbSymbolTable
70
2
0
APPID
5
12
100
AcDbSymbolTableRecord
100
AcDbRegAppTableRecord
2
ACAD
70
0
0
ENDTAB
0
TABLE
2
DIMSTYLE
5
A
100
AcDbSymbolTable
70
1
0
ENDTAB
0
TABLE
2
BLOCK_RECORD
5
1
100
AcDbSymbolTable
70
1
0
BLOCK_RECORD
5
1F
100
AcDbSymbolTableRecord
100
AcDbBlockTableRecord
2
*MODEL_SPACE
0
BLOCK_RECORD
5
1B
100
AcDbSymbolTableRecord
100
AcDbBlockTableRecord
2
*PAPER_SPACE
0
ENDTAB
0
ENDSEC
0
SECTION
2
BLOCKS
0
BLOCK
5
20
100
AcDbEntity
100
AcDbBlockBegin
2
*MODEL_SPACE
0
ENDBLK
5
21
100
AcDbEntity
100
AcDbBlockEnd
0
BLOCK
5
1C
100
AcDbEntity
100
AcDbBlockBegin
2
*PAPER_SPACE
0
ENDBLK
5
1D
100
AcDbEntity
100
AcDbBlockEnd
0
ENDSEC
0
SECTION
2
ENTITIES
0
LWPOLYLINE
5
100
100
AcDbEntity
8
0
100
AcDbPolyline
90
36
70
1
43
0.0
10
150
20
132
10
148
20
130
10
107
20
130
10
105
20
128
10
105
20
90
10
110
20
85
10
116
20
85
10
116
20
45.000000000000007
10
110
20
45.000000000000007
10
105
20
40
10
105
20
2.0000000000000107
10
107
20
9.2765301613124177e-15
10
148
20
1.7486012637846216e-14
10
150
20
-1.999999999999984
10
150
20
-74.999999999999986
42
-0.41421356237309503
10
75
20
-150
10
-74.999999999999986
20
-150
42
-0.41421356237309553
10
-150.00000000000003
20
-75
10
-150
20
-1.9999999999999751
10
-148
20
1.7368822429691339e-14
10
-107
20
9.1593399531575415e-15
10
-105
20
2.0000000000000107
10
-105
20
40.000000000000007
10
-110
20
45.000000000000007
10
-116
20
45.000000000000007
10
-116
20
85
10
-110
20
85
10
-105
20
90
10
-105
20
128
10
-107
20
130
10
-148
20
130
10
-150
20
132
10
-150.00000000000003
20
140
10
-140
20
150
10
140
20
150
10
150
20
140
0
CIRCLE
5
101
100
AcDbEntity
8
0
100
AcDbCircle
10
-77.000000000000014
20
-47.000001266598659
30
0
40
2.1000000000000001
210
0
220
-0
230
1
0
CIRCLE
5
102
100
AcDbEntity
8
0
100
AcDbCircle
10
76.999999999999957
20
-47.000001266598659
30
0
40
2.1000000000000001
210
0
220
-0
230
1
0
LINE
5
103
100
AcDbEntity
8
0
100
AcDbLine
10
-90
20
-110
30
0
11
-89.999999999999787
21
-69.999999999999986
31
0
0
ARC
5
104
100
AcDbEntity
8
0
100
AcDbCircle
10
-87.899999999999764
20
-69.999999999999986
30
0
40
2.0999999999999983
210
0
220
0
230
1
100
AcDbArc
50
-4.829673098024349e-06
51
180
0
LINE
5
105
100
AcDbEntity
8
0
100
AcDbLine
10
-85.79999999999977
20
-70.000000176851074
30
0
11
-85.799999999999983
21
-110
31
0
0
ARC
5
106
100
AcDbEntity
8
0
100
AcDbCircle
10
-87.899999999999991
20
-110
30
0
40
2.1000000000000085
210
0
220
0
230
1
100
AcDbArc
50
-180
51
0
0
LWPOLYLINE
5
107
100
AcDbEntity
8
0
100
AcDbPolyline
90
4
70
1
43
0.0
10
89.999999999999986
20
-110
10
89.999999999999986
20
-70
42
0.99999999999999989
10
85.799999999999997
20
-70
10
85.799999999999997
20
-110
42
0.99999999999999989
0
CIRCLE
5
108
100
AcDbEntity
8
0
100
AcDbCircle
10
35.999999999999801
20
103.50000000000006
30
0
40
2.1000000000000001
210
0
220
-0
230
1
0
CIRCLE
5
109
100
AcDbEntity
8
0
100
AcDbCircle
10
47.000000000000206
20
13.500000000000032
30
0
40
2.1000000000000001
210
0
220
-0
230
1
0
CIRCLE
5
110
100
AcDbEntity
8
0
100
AcDbCircle
10
-55.000000000000178
20
-115.99999999999997
30
0
40
2.1000000000000001
210
0
220
-0
230
1
0
CIRCLE
5
111
100
AcDbEntity
8
0
100
AcDbCircle
10
55.000000000000213
20
-115.99999999999997
30
0
40
2.1000000000000001
210
0
220
-0
230
1
0
CIRCLE
5
112
100
AcDbEntity
8
0
100
AcDbCircle
10
-1.7763568394002505e-13
20
-26.874999999999964
30
0
40
2.1000000000000001
210
0
220
-0
230
1
0
CIRCLE
5
113
100
AcDbEntity
8
0
100
AcDbCircle
10
-47.000000000000206
20
13.500000000000014
30
0
40
2.1000000000000001
210
0
220
-0
230
1
0
CIRCLE
5
114
100
AcDbEntity
8
0
100
AcDbCircle
10
-36.000000000000227
20
103.50000000000006
30
0
40
2.1000000000000001
210
0
220
-0
230
1
0
LWPOLYLINE
5
115
100
AcDbEntity
8
0
100
AcDbPolyline
90
4
70
1
43
0.0
10
-10
20
-138
10
10
20
-138
42
0.99999999999999989
10
10
20
-133.79999999999998
10
-10
20
-133.80000000000001
42
0.99999999999999989
0
CIRCLE
5
116
100
AcDbEntity
8
0
100
AcDbCircle
10
-90.787961751253846
20
-133.92147540363322
30
0
40
2.1000000000000001
210
0
220
-0
230
1
0
CIRCLE
5
117
100
AcDbEntity
8
0
100
AcDbCircle
10
135.99999999999994
20
-61.000001266598787
30
0
40
2.1000000000000001
210
0
220
-0
230
1
0
CIRCLE
5
118
100
AcDbEntity
8
0
100
AcDbCircle
10
90.787961751253846
20
-133.92147540363322
30
0
40
2.1000000000000001
210
0
220
-0
230
1
0
CIRCLE
5
119
100
AcDbEntity
8
0
100
AcDbCircle
10
-135.99999999999994
20
-61.000001266598794
30
0
40
2.1000000000000001
210
0
220
-0
230
1
0
CIRCLE
5
120
100
AcDbEntity
8
0
100
AcDbCircle
10
-77.000000000000014
20
32.999998733401306
30
0
40
2.1000000000000001
210
0
220
-0
230
1
0
CIRCLE
5
121
100
AcDbEntity
8
0
100
AcDbCircle
10
-143.80312229202593
20
135.35875653511647
30
0
40
2.1000000000000001
210
0
220
-0
230
1
0
CIRCLE
5
122
100
AcDbEntity
8
0
100
AcDbCircle
10
10.999999999999979
20
135.99999932448071
30
0
40
2.1000000000000001
210
0
220
-0
230
1
0
CIRCLE
5
123
100
AcDbEntity
8
0
100
AcDbCircle
10
77.000002218553334
20
96.999998733401327
30
0
40
2.1000000000000001
210
0
220
-0
230
1
0
CIRCLE
5
124
100
AcDbEntity
8
0
100
AcDbCircle
10
135.99999999999997
20
-39.000001266598723
30
0
40
2.1000000000000001
210
0
220
-0
230
1
0
CIRCLE
5
125
100
AcDbEntity
8
0
100
AcDbCircle
10
76.999999999999957
20
32.999998733401341
30
0
40
2.1000000000000001
210
0
220
-0
230
1
0
CIRCLE
5
126
100
AcDbEntity
8
0
100
AcDbCircle
10
143.80312229202588
20
135.35875653511653
30
0
40
2.1000000000000001
210
0
220
-0
230
1
0
CIRCLE
5
127
100
AcDbEntity
8
0
100
AcDbCircle
10
-11.000000000000046
20
135.99999932448071
30
0
40
2.1000000000000001
210
0
220
-0
230
1
0
CIRCLE
5
128
100
AcDbEntity
8
0
100
AcDbCircle
10
-77.000002218553391
20
96.999998733401299
30
0
40
2.1000000000000001
210
0
220
-0
230
1
0
CIRCLE
5
129
100
AcDbEntity
8
0
100
AcDbCircle
10
-135.99999999999994
20
-39.000001266598794
30
0
40
2.1000000000000001
210
0
220
-0
230
1
0
CIRCLE
5
130
100
AcDbEntity
8
0
100
AcDbCircle
10
-96
20
76.000001132488237
30
0
40
1.6000000000000003
210
0
220
-0
230
1
0
CIRCLE
5
131
100
AcDbEntity
8
0
100
AcDbCircle
10
-96
20
53.999998867511756
30
0
40
1.6000000000000003
210
0
220
-0
230
1
0
CIRCLE
5
132
100
AcDbEntity
8
0
100
AcDbCircle
10
-60
20
75.99999919533731
30
0
40
1.6000000000000003
210
0
220
-0
230
1
0
CIRCLE
5
133
100
AcDbEntity
8
0
100
AcDbCircle
10
-60
20
54.000000804662697
30
0
40
1.6000000000000003
210
0
220
-0
230
1
0
CIRCLE
5
134
100
AcDbEntity
8
0
100
AcDbCircle
10
60
20
54.000000804662697
30
0
40
1.6000000000000003
210
0
220
-0
230
1
0
CIRCLE
5
135
100
AcDbEntity
8
0
100
AcDbCircle
10
96
20
76.000001132488237
30
0
40
1.6000000000000003
210
0
220
-0
230
1
0
CIRCLE
5
136
100
AcDbEntity
8
0
100
AcDbCircle
10
96
20
53.999998867511756
30
0
40
1.6000000000000003
210
0
220
-0
230
1
0
CIRCLE
5
137
100
AcDbEntity
8
0
100
AcDbCircle
10
60
20
75.99999919533731
30
0
40
1.6000000000000003
210
0
220
-0
230
1
0
ENDSEC
0
SECTION
2
OBJECTS
0
DICTIONARY
5
C
100
AcDbDictionary
3
ACAD_GROUP
350
D
3
ACAD_MLINESTYLE
350
17
0
DICTIONARY
5
D
100
AcDbDictionary
0
DICTIONARY
5
1A
330
C
100
AcDbDictionary
0
DICTIONARY
5
17
100
AcDbDictionary
0
ENDSEC
0
EOF
